<svg width="522" height="121" viewBox="0 0 522 121" fill="none" xmlns="http://www.w3.org/2000/svg">
<path d="M68.5 2.9375C71 6.4375 73.8333 9.64583 77 12.5625C80.1667 15.4375 83.5 18.1875 87 20.8125C87.3333 20.9792 87.5833 21.1458 87.75 21.3125C88.1667 22.1042 88.0417 22.7292 87.375 23.1875L72.375 33.625C71.0833 34.6667 71.2708 35.2708 72.9375 35.4375C78.8125 35.6458 83.5 38.9375 87 45.3125C90.5 51.6875 92.0833 57.3958 91.75 62.4375C91.0833 71.4375 86.7917 79.2083 78.875 85.75C71 92.2917 61.8125 95.8333 51.3125 96.375C37.8125 97.125 26.1042 93 16.1875 84C6.27083 74.9583 1.125 63.9375 0.75 50.9375C0.416667 37.0208 3.83333 25.4583 11 16.25C18.2083 7.04167 26.5208 2.4375 35.9375 2.4375C43.3958 2.4375 48.625 5.64583 51.625 12.0625C51.9583 12.7708 52.4792 12.8958 53.1875 12.4375L66.625 2.5625C67.3333 2.10417 67.9583 2.22917 68.5 2.9375ZM58.9375 44C57.8125 44.0417 56.5833 44.2083 55.25 44.5C54.2917 44.6667 53.6875 44.4375 53.4375 43.8125C53.1875 43.1458 53.4792 42.5625 54.3125 42.0625L72.3125 29.5625C73.0208 29.0625 73.0417 28.5208 72.375 27.9375C66.0417 23.0625 60.9375 18.2083 57.0625 13.375C56.6875 12.875 56.2292 12.8125 55.6875 13.1875L48.5625 18.375C44.0625 21.7083 41.9583 25.4167 42.25 29.5C42.5833 33.5833 45.4375 38.5417 50.8125 44.375C59.8125 54.2917 62.5833 61.8125 59.125 66.9375C55.7083 72.0625 50.125 76.6875 42.375 80.8125C41.4167 81.2708 40.7083 81.2083 40.25 80.625C39.8333 80 40.0208 79.3333 40.8125 78.625C42.6458 76.875 44.6042 74.7917 46.6875 72.375C48.7708 69.9583 46.0833 64.1875 38.625 55.0625C33.3333 48.6042 30.1458 43.4375 29.0625 39.5625C27.9792 35.6458 28.1667 32.3958 29.625 29.8125C31.125 27.1875 33.5 24.9167 36.75 23C40 21.0833 43.3333 18.875 46.75 16.375L49.1875 14.5625C49.6042 14.2708 49.7292 13.875 49.5625 13.375C47.7292 7.95833 43.4792 5.3125 36.8125 5.4375C30.8542 5.60417 25.9792 9.125 22.1875 16C18.4375 22.8333 16.6875 30.625 16.9375 39.375C17.4375 55.7917 21.2292 68.6875 28.3125 78.0625C35.3958 87.3958 44.2708 92.0625 54.9375 92.0625C62.1875 92.0625 67.75 89.3542 71.625 83.9375C75.5417 78.4792 77.4583 72.6042 77.375 66.3125C77.2917 61.1042 75.625 56.0833 72.375 51.25C69.1667 46.4167 64.6875 44 58.9375 44ZM116.812 95.75C116.729 94.75 116.188 94 115.188 93.5C114.229 93 113.417 92.5 112.75 92C107.958 88.75 104.562 84.7917 102.562 80.125C100.604 75.4167 99.5 70.4375 99.25 65.1875C98.75 53.3125 101.958 44.2708 108.875 38.0625C111.333 35.8542 114.167 34.0625 117.375 32.6875C120.583 31.2708 123.875 30.125 127.25 29.25C128.292 29.0417 129.062 29.5625 129.562 30.8125L138.562 51.9375C138.979 53.0625 138.833 53.7708 138.125 54.0625H138L112.375 64C111.875 64.25 111.667 64.6458 111.75 65.1875C113.792 74.4375 117.208 80.375 122 83C126.792 85.5833 131.562 85.9583 136.312 84.125C137.146 83.75 137.667 83.8125 137.875 84.3125C138.125 84.8125 137.979 85.1875 137.438 85.4375C134.062 87.1458 130.833 88.8958 127.75 90.6875C124.708 92.4792 121.979 94.3542 119.562 96.3125C119.188 96.5625 118.625 96.6458 117.875 96.5625C117.167 96.4792 116.812 96.2083 116.812 95.75ZM111 60.4375C111.042 60.7708 111.188 61.0417 111.438 61.25C111.688 61.4167 112 61.4167 112.375 61.25L125.688 56.25C126.312 56 126.5 55.5625 126.25 54.9375L118.625 36.25C118.25 35.3333 117.5 35.2083 116.375 35.875C113.958 37.2917 112.312 40.5208 111.438 45.5625C110.562 50.6042 110.417 55.5625 111 60.4375ZM166.875 71.4375C166.833 78.1458 168.083 82.0208 170.625 83.0625C170.917 83.2708 171.062 83.5625 171.062 83.9375C171.062 84.2708 170.917 84.5208 170.625 84.6875C166.875 87.5208 163.833 91.2917 161.5 96C161.25 96.3333 160.938 96.5 160.562 96.5C160.188 96.5 159.875 96.3333 159.625 96C157.292 91.2917 154.125 87.5417 150.125 84.75C149.875 84.5833 149.75 84.3125 149.75 83.9375C149.75 83.5625 149.896 83.2708 150.188 83.0625C152.896 82.0208 154.25 78.1458 154.25 71.4375V50.6875C154.25 46.4375 153.458 43.8333 151.875 42.875C150.042 41.6667 148.542 42.1042 147.375 44.1875C146.917 45.0625 146.396 45.2708 145.812 44.8125C145.229 44.3542 145.25 43.625 145.875 42.625C147.083 40.7083 148.229 38.75 149.312 36.75C150.438 34.75 151.583 32.75 152.75 30.75C153.417 29.5417 154.354 29.2917 155.562 30L155.625 30.0625C161.75 33.1458 165.417 36.9167 166.625 41.375C166.708 41.8333 166.917 42.1042 167.25 42.1875C167.583 42.2708 167.917 42.1875 168.25 41.9375C170.542 40.0208 172.896 38 175.312 35.875C177.729 33.75 179.375 31.7917 180.25 30C180.708 28.9167 181.458 28.9375 182.5 30.0625C185 32.6875 187.125 34.7708 188.875 36.3125C190.667 37.8542 193.688 39 197.938 39.75C198.688 39.9167 199.062 40.25 199.062 40.75C199.104 41.2083 198.854 41.5208 198.312 41.6875C197.229 42.1042 196.271 42.8333 195.438 43.875C194.604 44.875 194.188 46.5625 194.188 48.9375V75.375C194.188 79.625 194.979 82.2292 196.562 83.1875C198.396 84.3125 199.875 83.8542 201 81.8125C201.458 81.0208 201.979 80.8542 202.562 81.3125C203.188 81.7292 203.188 82.4375 202.562 83.4375C201.312 85.3958 200.125 87.375 199 89.375C197.917 91.3333 196.812 93.2917 195.688 95.25C194.938 96.4167 194 96.6875 192.875 96.0625C185.292 92.3958 181.5 86.9583 181.5 79.75L181.562 47.75C181.562 46.5 181.25 45.6875 180.625 45.3125H180.562V45.1875L175.25 40.8125C174.792 40.4792 174.312 40.4583 173.812 40.75L167.312 45.8125C167.021 46.0208 166.875 46.2708 166.875 46.5625V71.4375ZM243.625 86.3125C240.625 87.6875 237.021 89.2292 232.812 90.9375C228.604 92.6042 225.312 94.3125 222.938 96.0625C222.062 96.6458 221.438 96.875 221.062 96.75C220.688 96.625 220.542 96.2708 220.625 95.6875C220.667 94.9375 220.333 93.6667 219.625 91.875C218.958 90.0833 218.146 88.4792 217.188 87.0625C214.521 83.1875 212.792 79.6458 212 76.4375C211.208 73.2292 210.562 69.4167 210.062 65C209.604 60.75 210.542 56.7292 212.875 52.9375C215.25 49.1458 218.354 45.7708 222.188 42.8125C224.604 40.9792 226.875 39.0417 229 37C231.125 34.9583 232.979 32.4792 234.562 29.5625C235.271 28.2708 236.208 28.2292 237.375 29.4375C243.625 36.5208 250.292 40.7917 257.375 42.25C259.208 42.7083 259.604 43.375 258.562 44.25C254.729 49.875 253.021 55.625 253.438 61.5C253.854 67.3333 255.208 73.25 257.5 79.25V79.3125L257.562 79.375C261.312 93.0833 260.042 103.021 253.75 109.188C247.5 115.396 241.292 118.812 235.125 119.438C224.458 120.479 217.396 117.729 213.938 111.188C213.146 109.688 213.125 108.271 213.875 106.938C214.667 105.604 215.812 104.812 217.312 104.562C220.271 104.062 222.875 105.979 225.125 110.312C228.208 116.521 232.708 118.417 238.625 116C243.708 113.875 246.625 110.208 247.375 105C248.125 99.7917 247.375 93.8125 245.125 87.0625C245.125 86.9792 245.104 86.9167 245.062 86.875L245 86.8125C244.75 86.1875 244.292 86.0208 243.625 86.3125ZM247.25 51.4375C244.917 50.4792 242.146 49 238.938 47C235.729 45 233.375 43.3125 231.875 41.9375L231.75 41.875C231.75 41.8333 231.75 41.7917 231.75 41.75C230.25 39.5417 228.917 39.3542 227.75 41.1875C223.333 47.7708 221.583 55.0417 222.5 63C223.125 68.2917 224.271 73.1667 225.938 77.625C227.604 82.0833 230.188 85 233.688 86.375L233.75 86.4375H233.812C236.146 87.0625 239.167 86.1875 242.875 83.8125C243.292 83.6042 243.438 83.2083 243.312 82.625C241.562 77.8333 240.896 72.9792 241.312 68.0625C241.771 63.1042 243.896 58.0625 247.688 52.9375C248.062 52.2708 247.917 51.7708 247.25 51.4375ZM327.188 49.625C332.812 49.875 337.458 48.4167 341.125 45.25C341.833 44.5417 342.5 44.4167 343.125 44.875C343.75 45.2917 343.75 45.7708 343.125 46.3125C338.458 50.8125 333.562 53 328.438 52.875C321.938 52.75 316.625 50.5625 312.5 46.3125C308.375 42.0208 306.292 36.375 306.25 29.375C306.25 22.375 309.104 16.125 314.812 10.625C320.562 5.08333 327.729 2.3125 336.312 2.3125C341.938 2.3125 347.167 3.58333 352 6.125C356.875 8.66667 360.667 12.2083 363.375 16.75C363.958 13.4167 365.438 10.4375 367.812 7.8125C370.188 5.14583 373.333 3.29167 377.25 2.25C382.583 0.875 387.562 1.66667 392.188 4.625C396.854 7.54167 400.062 11.8125 401.812 17.4375C404.146 25.1458 406.167 28.8542 407.875 28.5625C408.875 28.3542 409.479 28.6667 409.688 29.5C409.938 30.2917 409.312 30.9583 407.812 31.5C399.938 34.75 395.542 37.9583 394.625 41.125C393.75 44.25 395.812 50.0833 400.812 58.625C406.562 68.625 408.417 77.3125 406.375 84.6875C404.333 92.0208 399.625 98.5208 392.25 104.188C387.625 107.562 382.896 110.062 378.062 111.688C373.271 113.312 368.458 114.062 363.625 113.938C355.917 113.729 349.229 112.146 343.562 109.188C337.896 106.229 332.917 102.062 328.625 96.6875C328.083 95.9792 328.104 95.3958 328.688 94.9375C329.271 94.5208 329.896 94.6875 330.562 95.4375C334.896 100.188 339.625 103.792 344.75 106.25C349.875 108.708 355.917 109.938 362.875 109.938C375.958 109.312 384.417 104.667 388.25 96C392.125 87.3333 390.562 77.3125 383.562 65.9375C379.396 59.2708 378.146 53.7083 379.812 49.25C381.479 44.7917 386 40.6042 393.375 36.6875C393.75 36.3958 393.938 36.0833 393.938 35.75C393.938 35.4167 393.75 35.125 393.375 34.875C391.875 34.125 390.354 32.7917 388.812 30.875C387.271 28.9167 386.062 25.7917 385.188 21.5C384.438 18.0833 383.167 15.1458 381.375 12.6875C379.625 10.2292 376.938 9.20833 373.312 9.625C370.354 10 368.271 11.5833 367.062 14.375C365.854 17.125 365.583 20.2708 366.25 23.8125C367.333 28.6042 367.312 33.5 366.188 38.5C364.312 47 361.625 53.625 358.125 58.375C354.667 63.125 351.021 67.2292 347.188 70.6875C346.979 70.8958 346.875 71.2083 346.875 71.625C346.917 72.0417 347.125 72.2917 347.5 72.375C348.917 73 351.021 74.3125 353.812 76.3125C357.771 79.4375 361.104 80.7083 363.812 80.125C366.521 79.5 369.021 77.875 371.312 75.25C372.188 74.2917 373.021 74.1042 373.812 74.6875C374.646 75.2292 374.708 76 374 77C371.792 79.5 369.896 81.7292 368.312 83.6875C366.771 85.6458 365.458 87.375 364.375 88.875C361.875 92.375 358.688 94 354.812 93.75C350.979 93.4583 347.167 91.5625 343.375 88.0625C339.167 84.2292 335.604 83.4792 332.688 85.8125C331.771 86.4792 331.042 86.5 330.5 85.875C329.958 85.25 330.167 84.4583 331.125 83.5C333.542 80.9167 336.104 78.4375 338.812 76.0625C341.562 73.6458 343.938 70.9375 345.938 67.9375C348.604 63.8958 350.75 59.125 352.375 53.625C354.042 48.0833 354.792 43.0625 354.625 38.5625C354.333 33.2292 351.938 27.7917 347.438 22.25C342.938 16.6667 336.917 14.1875 329.375 14.8125C324.542 14.7292 320.25 16.3125 316.5 19.5625C312.792 22.8125 310.938 26.875 310.938 31.75C310.896 36.625 312.312 40.7917 315.188 44.25C318.062 47.6667 322.062 49.4583 327.188 49.625ZM452.688 78.5625L452.75 52.5C452.75 45.5 451.479 41.625 448.938 40.875C448.646 40.6667 448.5 40.4167 448.5 40.125C448.5 39.7917 448.646 39.5 448.938 39.25C452.646 36.5833 455.708 32.8333 458.125 28C458.292 27.625 458.583 27.4375 459 27.4375C459.417 27.4375 459.729 27.625 459.938 28C462.146 32.7917 465.312 36.5208 469.438 39.1875C469.729 39.4375 469.875 39.75 469.875 40.125C469.875 40.4583 469.708 40.7083 469.375 40.875C466.625 41.6667 465.292 45.5417 465.375 52.5V74.5C465.375 78.7917 466.167 81.4167 467.75 82.375C469.5 83.5417 470.979 83.0833 472.188 81C472.646 80.2083 473.167 80.0417 473.75 80.5C474.375 80.9167 474.375 81.625 473.75 82.625C472.5 84.5417 471.312 86.5 470.188 88.5C469.104 90.5 468 92.4583 466.875 94.375C466.167 95.5833 465.188 95.8125 463.938 95.0625C457.729 92.1042 454.083 88.3542 453 83.8125C452.917 83.4792 452.667 83.25 452.25 83.125C451.833 83 451.542 83.0625 451.375 83.3125C449 85.2292 446.625 87.25 444.25 89.375C441.875 91.4583 440.25 93.375 439.375 95.125C438.667 96.125 437.896 96.1042 437.062 95.0625C434.771 92.3958 432.521 90.3542 430.312 88.9375C428.146 87.5208 425.25 86.375 421.625 85.5C420.833 85.2083 420.458 84.8542 420.5 84.4375C420.542 84.0208 420.812 83.7083 421.312 83.5C422.354 83.125 423.292 82.4375 424.125 81.4375C425 80.3958 425.438 78.6875 425.438 76.3125V49.875C425.438 45.625 424.646 43.0208 423.062 42.0625C421.188 40.9375 419.688 41.3958 418.562 43.4375C418.104 44.2292 417.583 44.3958 417 43.9375C416.417 43.4792 416.438 42.75 417.062 41.75C418.271 39.875 419.417 37.9375 420.5 35.9375C421.625 33.9375 422.771 31.9375 423.938 29.9375C424.646 28.6875 425.583 28.4583 426.75 29.25H426.812C434.354 33.2083 438.125 38.625 438.125 45.5L438 77.5C438 78.7083 438.312 79.5208 438.938 79.9375L444.312 84.375C444.729 84.75 445.208 84.7917 445.75 84.5C449.125 81.8333 451.312 80.125 452.312 79.375C452.562 79.2083 452.688 78.9375 452.688 78.5625ZM498.938 95.75C498.854 94.75 498.312 94 497.312 93.5C496.354 93 495.542 92.5 494.875 92C490.083 88.75 486.688 84.7917 484.688 80.125C482.729 75.4167 481.625 70.4375 481.375 65.1875C480.875 53.3125 484.083 44.2708 491 38.0625C493.458 35.8542 496.292 34.0625 499.5 32.6875C502.708 31.2708 506 30.125 509.375 29.25C510.417 29.0417 511.188 29.5625 511.688 30.8125L520.688 51.9375C521.104 53.0625 520.958 53.7708 520.25 54.0625H520.125L494.5 64C494 64.25 493.792 64.6458 493.875 65.1875C495.917 74.4375 499.333 80.375 504.125 83C508.917 85.5833 513.688 85.9583 518.438 84.125C519.271 83.75 519.792 83.8125 520 84.3125C520.25 84.8125 520.104 85.1875 519.562 85.4375C516.188 87.1458 512.958 88.8958 509.875 90.6875C506.833 92.4792 504.104 94.3542 501.688 96.3125C501.312 96.5625 500.75 96.6458 500 96.5625C499.292 96.4792 498.938 96.2083 498.938 95.75ZM493.125 60.4375C493.167 60.7708 493.312 61.0417 493.562 61.25C493.812 61.4167 494.125 61.4167 494.5 61.25L507.812 56.25C508.438 56 508.625 55.5625 508.375 54.9375L500.75 36.25C500.375 35.3333 499.625 35.2083 498.5 35.875C496.083 37.2917 494.438 40.5208 493.562 45.5625C492.688 50.6042 492.542 55.5625 493.125 60.4375Z" fill="black"/>
</svg>
