<svg width="44" height="30" viewBox="0 0 44 30" fill="none" xmlns="http://www.w3.org/2000/svg">
<path d="M21.024 29.448C20.5973 29.448 20.256 29.4053 20 29.32C18.6347 28.9787 17.6533 28.4667 17.056 27.784C16.544 27.016 16.2027 26.4187 16.032 25.992C15.4347 24.1147 15.648 22.1947 16.672 20.232C17.696 18.184 19.0187 16.0507 20.64 13.832C21.152 13.1493 21.6213 12.424 22.048 11.656C22.56 10.8027 22.9867 10.0773 23.328 9.48C23.4133 9.39467 23.5413 9.224 23.712 8.968C23.2 9.13867 22.56 9.39467 21.792 9.736C21.1093 10.0773 20.2987 10.5893 19.36 11.272C17.824 12.2107 16.2027 13.448 14.496 14.984C12.7893 16.4347 11.04 17.9707 9.248 19.592C8.82133 19.9333 8.352 20.3173 7.84 20.744C7.41333 21.1707 6.98667 21.5973 6.56 22.024C5.792 22.7067 4.896 23.048 3.872 23.048C2.76267 22.9627 1.86667 22.4933 1.184 21.64C0.416 20.872 0.0746665 19.976 0.16 18.952C0.245333 17.8427 0.672 16.9467 1.44 16.264C1.86667 15.8373 2.336 15.4107 2.848 14.984C3.27467 14.5573 3.70133 14.1733 4.128 13.832C6.85867 11.3573 9.54667 9.096 12.192 7.048C14.8373 4.91467 17.44 3.29333 20 2.184C22.56 1.07466 25.0347 0.861331 27.424 1.544C28.8747 1.88533 29.8987 2.48267 30.496 3.336C31.1787 4.104 31.5627 4.78667 31.648 5.384C32.416 7.26133 32.2453 9.26667 31.136 11.4C30.0267 13.448 28.6187 15.7093 26.912 18.184C26.7413 18.3547 26.528 18.6533 26.272 19.08C26.1013 19.4213 25.888 19.7627 25.632 20.104C26.912 19.592 28.576 18.952 30.624 18.184C32.672 17.416 35.1467 16.4773 38.048 15.368C39.1573 15.0267 40.1813 15.112 41.12 15.624C42.0587 16.0507 42.6987 16.776 43.04 17.8C43.4667 18.7387 43.424 19.72 42.912 20.744C42.4853 21.6827 41.8027 22.3653 40.864 22.792C38.1333 23.7307 35.6587 24.584 33.44 25.352C31.2213 26.12 29.344 26.8027 27.808 27.4C26.9547 27.7413 26.1867 28.04 25.504 28.296C24.9067 28.4667 24.352 28.6373 23.84 28.808C23.2427 28.9787 22.7307 29.1493 22.304 29.32C21.8773 29.4053 21.4507 29.448 21.024 29.448Z" fill="black"/>
</svg>
