<svg width="474" height="141" viewBox="0 0 474 141" fill="none" xmlns="http://www.w3.org/2000/svg">
<path d="M62.8045 86.832C59.9032 86.832 57.9405 85.296 56.9165 82.224C55.9778 79.2373 55.5085 75.952 55.5085 72.368L55.8925 68.656C51.7112 71.3013 46.7618 73.392 41.0445 74.928C35.4125 76.464 29.4818 77.232 23.2525 77.232C18.7298 77.232 14.7192 76.208 11.2205 74.16C7.72183 72.0267 4.99117 69.168 3.0285 65.584C1.15117 61.9147 0.2125 57.776 0.2125 53.168C0.2125 46.1707 2.94317 39.5573 8.4045 33.328C13.8658 27.0133 20.5645 21.8933 28.5005 17.968C36.5218 13.9573 43.9458 11.696 50.7725 11.184C54.1858 10.8427 57.0872 11.6107 59.4765 13.488C61.8658 15.28 63.0605 17.7973 63.0605 21.04C61.2685 21.04 59.1352 20.5707 56.6605 19.632C56.3192 19.5467 55.4232 19.2907 53.9725 18.864C52.5218 18.4373 51.0285 18.224 49.4925 18.224C43.4338 18.224 36.9912 19.9733 30.1645 23.472C23.4232 26.9707 17.7485 31.6213 13.1405 37.424C8.61783 43.1413 6.3565 49.1573 6.3565 55.472C6.3565 58.4587 7.2525 61.0613 9.0445 63.28C10.9218 65.4133 13.2258 67.0773 15.9565 68.272C18.7725 69.3813 21.5885 69.936 24.4045 69.936C31.1458 69.936 36.6925 69.68 41.0445 69.168C45.3965 68.5707 49.1512 67.0773 52.3085 64.688C55.4658 62.2133 57.0445 58.4587 57.0445 53.424C57.0445 51.0347 56.5325 49.3707 55.5085 48.432H32.7245C31.5298 48.432 30.3778 47.8347 29.2685 46.64C28.2445 45.4453 27.7325 44.2507 27.7325 43.056C27.7325 40.9227 28.3725 39.856 29.6525 39.856C30.6765 39.856 32.2978 40.2827 34.5165 41.136C36.5645 42.0747 38.3138 42.544 39.7645 42.544C41.6418 42.544 44.5432 42.288 48.4685 41.776C49.1512 41.6907 50.3885 41.5627 52.1805 41.392C53.9725 41.2213 55.5938 41.136 57.0445 41.136C58.4952 41.136 59.9032 41.776 61.2685 43.056C62.7192 44.2507 63.4018 45.616 63.3165 47.152L62.5485 76.72C63.1458 77.9147 64.1698 78.9387 65.6205 79.792C66.1325 80.048 66.5592 80.3467 66.9005 80.688C67.2418 81.1147 67.4552 81.5413 67.5405 81.968C67.9672 82.9067 67.5405 83.9307 66.2605 85.04C64.9805 86.2347 63.8285 86.832 62.8045 86.832ZM109.391 78C103.929 78 98.8945 76.9333 94.2865 74.8C89.6785 72.6667 86.0092 69.6373 83.2785 65.712C80.5478 61.7867 79.1825 57.264 79.1825 52.144C79.1825 46.4267 80.2492 41.0933 82.3825 36.144C84.5158 31.1093 87.6305 27.0987 91.7265 24.112C95.9078 21.04 100.772 19.504 106.319 19.504C112.121 19.504 116.516 21.3813 119.503 25.136C122.489 28.8053 123.897 33.456 123.727 39.088C123.727 44.1227 121.721 47.9627 117.711 50.608C113.785 53.2533 108.751 54.576 102.607 54.576C101.668 54.576 100.26 54.4907 98.3825 54.32C95.3105 53.9787 93.1345 53.5093 91.8545 52.912C90.5745 52.3147 89.9345 51.12 89.9345 49.328C89.9345 48.7307 90.1052 48.304 90.4465 48.048C90.7878 47.7067 91.4705 47.536 92.4945 47.536C93.6038 47.536 95.5665 47.792 98.3825 48.304C101.113 48.816 103.545 49.072 105.679 49.072C113.529 49.072 117.455 45.6587 117.455 38.832C117.455 34.736 116.687 31.4933 115.151 29.104C113.7 26.7147 111.097 25.52 107.343 25.52C103.247 25.52 99.5772 26.6293 96.3345 28.848C93.0918 30.9813 90.5745 33.7973 88.7825 37.296C87.0758 40.7947 86.2225 44.5067 86.2225 48.432C86.2225 55.1733 88.0998 60.72 91.8545 65.072C95.6092 69.3387 101.412 71.472 109.263 71.472C110.201 71.472 111.78 71.3867 113.999 71.216C114.937 71.1307 116.089 70.8747 117.455 70.448C118.82 70.0213 119.801 69.7227 120.399 69.552C124.068 68.272 126.756 67.632 128.463 67.632C129.743 67.632 130.724 67.9733 131.407 68.656C129.273 71.8987 126.073 74.288 121.807 75.824C117.625 77.2747 113.487 78 109.391 78ZM148.718 78.512C147.523 78.8533 146.84 79.024 146.67 79.024C145.987 79.024 145.262 78.6827 144.494 78C141.678 73.8187 139.63 66.5227 138.35 56.112C137.155 45.7013 136.558 36.7413 136.558 29.232C136.558 28.0373 137.411 27.44 139.118 27.44C141.678 27.44 142.958 28.848 142.958 31.664C142.958 32.432 142.915 33.072 142.83 33.584C143.598 31.792 145.048 29.9573 147.182 28.08C149.315 26.2027 151.79 24.624 154.606 23.344C157.422 22.064 160.28 21.424 163.182 21.424C172.312 21.424 178.968 25.4773 183.15 33.584C187.331 41.6053 189.422 51.5893 189.422 63.536C189.422 67.632 188.995 70.9173 188.142 73.392C187.288 75.7813 186.136 76.976 184.686 76.976C183.15 76.976 182.382 76.5067 182.382 75.568C182.979 71.0453 183.278 66.608 183.278 62.256C183.278 51.248 181.358 42.928 177.518 37.296C173.678 31.5787 168.6 28.72 162.286 28.72C159.214 28.72 156.227 29.488 153.326 31.024C150.51 32.56 148.206 34.6933 146.414 37.424C144.707 40.1547 143.854 43.2693 143.854 46.768C143.854 50.6933 144.067 54.1067 144.494 57.008C144.92 59.9093 145.603 63.408 146.542 67.504C147.566 71.5147 148.291 75.184 148.718 78.512ZM221.187 140.464C214.019 140.464 208.003 138.416 203.139 134.32C198.36 130.309 195.501 123.525 194.562 113.968C194.477 112.517 194.691 111.408 195.203 110.64C195.8 109.872 196.568 109.488 197.507 109.488C198.531 109.488 199.427 109.872 200.195 110.64C200.963 111.493 201.304 112.603 201.219 113.968C201.219 119.6 203.139 124.037 206.979 127.28C210.904 130.608 215.896 132.272 221.955 132.272C225.453 132.272 228.525 130.992 231.171 128.432C233.901 125.872 235.992 122.288 237.443 117.68C238.893 113.157 239.619 107.952 239.619 102.064C239.619 91.7387 239.747 81.712 240.003 71.984L240.131 65.456C236.803 68.9547 233.773 71.5147 231.043 73.136C228.397 74.7573 225.197 75.568 221.443 75.568C214.872 75.568 210.008 73.8187 206.851 70.32C203.779 66.736 202.243 61.2747 202.243 53.936C202.243 49.7547 203.352 45.4027 205.571 40.88C207.875 36.272 210.989 32.432 214.915 29.36C218.925 26.288 223.448 24.752 228.483 24.752C230.189 24.752 231.768 24.9227 233.219 25.264C238.68 26.4587 242.349 31.536 244.227 40.496C246.104 49.456 247.043 61.0613 247.043 75.312C247.043 79.2373 246.957 84.4427 246.787 90.928L246.659 103.088C246.659 107.952 245.891 113.243 244.355 118.96C242.819 124.763 240.131 129.797 236.291 134.064C232.451 138.331 227.416 140.464 221.187 140.464ZM219.523 67.12C225.837 67.12 230.616 65.6267 233.859 62.64C237.101 59.568 238.723 55.088 238.723 49.2C238.723 48.432 238.637 47.1093 238.467 45.232C238.04 41.3067 237.016 38.2347 235.395 36.016C233.859 33.712 231.427 32.56 228.099 32.56C224.6 32.56 221.4 33.7973 218.499 36.272C215.597 38.7467 213.336 41.8187 211.715 45.488C210.093 49.072 209.283 52.4427 209.283 55.6C209.283 58.7573 210.221 61.488 212.099 63.792C213.976 66.0107 216.451 67.12 219.523 67.12ZM334.748 4.39999C334.748 3.97333 335.26 3.58933 336.284 3.24799C337.308 2.82133 338.289 2.60799 339.228 2.60799C339.91 2.60799 340.422 2.77866 340.764 3.12C341.105 3.376 341.105 3.80266 340.764 4.39999C340.081 5.76533 338.545 8.66666 336.156 13.104C332.572 19.76 329.713 25.5627 327.58 30.512C325.446 35.4613 323.612 41.4773 322.076 48.56C320.54 55.6427 319.772 63.7493 319.772 72.88L319.9 80.176C319.9 81.0293 319.516 81.6693 318.748 82.096C318.065 82.5227 317.169 82.736 316.06 82.736C315.206 82.736 314.652 82.608 314.396 82.352C314.225 82.096 314.14 81.712 314.14 81.2C314.14 80.688 314.14 80.304 314.14 80.048C313.884 76.72 313.756 73.5627 313.756 70.576C313.756 63.8347 314.353 57.392 315.548 51.248C310.428 44.9333 306.246 39.5573 303.003 35.12C299.846 30.5973 296.86 25.6053 294.044 20.144C291.228 14.6827 288.582 8.368 286.108 1.2C286.278 1.28533 287.132 1.24266 288.668 1.072C290.204 0.901329 291.057 0.815994 291.228 0.815994L295.324 8.62399C300.188 17.84 304.07 24.88 306.972 29.744C309.873 34.5227 313.286 39.1733 317.212 43.696C319.004 36.8693 321.18 30.7253 323.74 25.264C326.385 19.7173 329.5 13.744 333.084 7.34399L334.748 4.39999ZM406.938 77.36C405.402 77.36 404.164 76.72 403.226 75.44C402.372 74.0747 401.604 72.0267 400.922 69.296C400.239 66.48 399.172 61.616 397.722 54.704C396.271 60.4213 393.54 64.9867 389.53 68.4C385.519 71.728 380.612 73.392 374.81 73.392C369.519 73.392 365.039 71.5573 361.37 67.888C357.786 64.1333 355.098 59.2267 353.306 53.168C351.514 47.024 350.618 40.4107 350.618 33.328C350.618 30.0853 350.916 27.312 351.514 25.008C352.196 22.6187 353.007 20.8267 353.946 19.632C354.97 18.4373 355.951 17.8827 356.89 17.968C357.914 17.968 358.426 18.6507 358.426 20.016C358.426 21.1253 358.127 22.8747 357.53 25.264C356.932 27.9093 356.634 30.9387 356.634 34.352C356.634 39.472 357.359 44.464 358.81 49.328C360.346 54.192 362.564 58.2027 365.466 61.36C368.452 64.432 371.951 65.968 375.962 65.968C379.29 65.968 382.319 64.9867 385.05 63.024C387.78 61.0613 389.914 58.5867 391.45 55.6C393.071 52.6133 393.882 49.6693 393.882 46.768V26.416C394.82 24.624 396.1 23.728 397.722 23.728C399.172 23.728 400.154 24.9653 400.666 27.44C401.178 29.9147 401.434 33.4133 401.434 37.936C401.434 41.776 401.391 44.72 401.306 46.768C401.818 49.584 402.586 52.4427 403.61 55.344C404.719 58.2453 406.084 61.5307 407.706 65.2C409.668 69.7227 410.65 72.496 410.65 73.52C410.65 76.08 409.412 77.36 406.938 77.36ZM451.141 78C445.679 78 440.645 76.9333 436.037 74.8C431.429 72.6667 427.759 69.6373 425.029 65.712C422.298 61.7867 420.933 57.264 420.933 52.144C420.933 46.4267 421.999 41.0933 424.133 36.144C426.266 31.1093 429.381 27.0987 433.477 24.112C437.658 21.04 442.522 19.504 448.069 19.504C453.871 19.504 458.266 21.3813 461.253 25.136C464.239 28.8053 465.647 33.456 465.477 39.088C465.477 44.1227 463.471 47.9627 459.461 50.608C455.535 53.2533 450.501 54.576 444.357 54.576C443.418 54.576 442.01 54.4907 440.133 54.32C437.061 53.9787 434.885 53.5093 433.605 52.912C432.325 52.3147 431.685 51.12 431.685 49.328C431.685 48.7307 431.855 48.304 432.197 48.048C432.538 47.7067 433.221 47.536 434.245 47.536C435.354 47.536 437.317 47.792 440.133 48.304C442.863 48.816 445.295 49.072 447.429 49.072C455.279 49.072 459.205 45.6587 459.205 38.832C459.205 34.736 458.437 31.4933 456.901 29.104C455.45 26.7147 452.847 25.52 449.093 25.52C444.997 25.52 441.327 26.6293 438.085 28.848C434.842 30.9813 432.325 33.7973 430.533 37.296C428.826 40.7947 427.973 44.5067 427.973 48.432C427.973 55.1733 429.85 60.72 433.605 65.072C437.359 69.3387 443.162 71.472 451.013 71.472C451.951 71.472 453.53 71.3867 455.749 71.216C456.687 71.1307 457.839 70.8747 459.205 70.448C460.57 70.0213 461.551 69.7227 462.149 69.552C465.818 68.272 468.506 67.632 470.213 67.632C471.493 67.632 472.474 67.9733 473.157 68.656C471.023 71.8987 467.823 74.288 463.557 75.824C459.375 77.2747 455.237 78 451.141 78Z" fill="black"/>
</svg>
