<svg width="256" height="256" viewBox="0 0 256 256" fill="none" xmlns="http://www.w3.org/2000/svg">
<rect width="256" height="256" fill="#F5F5F5"/>
<rect width="256" height="256" rx="25" fill="black"/>
<path d="M128.304 183.5C118.204 183.5 109.354 181.15 101.754 176.45C94.2535 171.75 88.4535 165.15 84.3535 156.65C80.2535 148.15 78.2035 138.2 78.2035 126.8C78.2035 115 80.3535 104.8 84.6535 96.2C88.9535 87.6 94.9535 80.95 102.654 76.25C110.454 71.55 119.504 69.2 129.804 69.2C137.904 69.2 145.154 70.75 151.554 73.85C157.954 76.95 163.104 80.9 167.004 85.7C171.004 90.5 173.504 95.6 174.504 101C174.904 102.5 174.954 103.5 174.654 104C174.454 104.5 173.854 104.85 172.854 105.05L153.054 108.05C152.154 108.05 151.554 107.85 151.254 107.45C151.054 107.05 150.854 106.45 150.654 105.65C150.054 102.35 148.804 99.35 146.904 96.65C145.104 93.95 142.704 91.8 139.704 90.2C136.804 88.5 133.304 87.65 129.204 87.65C124.304 87.65 120.054 88.95 116.454 91.55C112.954 94.15 110.254 98.25 108.354 103.85C106.554 109.45 105.654 116.8 105.654 125.9C105.654 135.5 106.604 143.15 108.504 148.85C110.504 154.55 113.304 158.7 116.904 161.3C120.604 163.8 125.004 165.05 130.104 165.05C133.304 165.05 136.104 164.6 138.504 163.7C141.004 162.7 143.104 161.4 144.804 159.8C146.604 158.2 148.054 156.4 149.154 154.4C150.254 152.3 151.054 150.15 151.554 147.95L151.854 143.6C152.254 142.1 151.754 141.35 150.354 141.35H132.204C131.404 141.35 130.804 141.2 130.404 140.9C130.004 140.5 129.804 139.8 129.804 138.8V127.55C129.804 126.15 130.604 125.45 132.204 125.45L172.254 125.6C173.754 125.6 174.854 125.95 175.554 126.65C176.254 127.25 176.604 128.1 176.604 129.2V179.75C176.604 180.45 176.404 181 176.004 181.4C175.604 181.8 175.054 182 174.354 182H169.554C168.754 182 168.054 181.85 167.454 181.55C166.854 181.15 166.254 180.5 165.654 179.6L161.304 168.8C161.204 168.5 161.004 168.35 160.704 168.35C160.504 168.35 160.204 168.6 159.804 169.1C158.004 171.3 155.754 173.55 153.054 175.85C150.354 178.05 147.004 179.9 143.004 181.4C139.004 182.8 134.104 183.5 128.304 183.5Z" fill="white"/>
</svg>
